<svg width="32" height="32" viewBox="0 0 32 32" xmlns="http://www.w3.org/2000/svg">
  <!-- Background -->
  <rect width="32" height="32" rx="6" fill="#ffffff" stroke="#e5e7eb" stroke-width="0.5"/>
  
  <!-- Main dashboard container -->
  <rect x="4" y="6" width="24" height="20" rx="2" fill="#f8f9fa" stroke="#22c55e" stroke-width="1"/>
  
  <!-- Top bar -->
  <rect x="4" y="6" width="24" height="4" rx="2" fill="#22c55e"/>
  
  <!-- Three dots in top bar -->
  <circle cx="7" cy="8" r="0.5" fill="#ffffff"/>
  <circle cx="9" cy="8" r="0.5" fill="#ffffff"/>
  <circle cx="11" cy="8" r="0.5" fill="#ffffff"/>
  
  <!-- Chart bars -->
  <rect x="7" y="14" width="2" height="6" fill="#22c55e"/>
  <rect x="10" y="16" width="2" height="4" fill="#16a34a"/>
  <rect x="13" y="12" width="2" height="8" fill="#22c55e"/>
  <rect x="16" y="15" width="2" height="5" fill="#16a34a"/>
  
  <!-- Pie chart representation -->
  <circle cx="23" cy="17" r="3" fill="none" stroke="#22c55e" stroke-width="1"/>
  <path d="M 23 14 A 3 3 0 0 1 25.6 18.8 L 23 17 Z" fill="#22c55e"/>
  
  <!-- Small metrics boxes -->
  <rect x="7" y="22" width="4" height="2" rx="0.5" fill="#dcfce7"/>
  <rect x="12" y="22" width="4" height="2" rx="0.5" fill="#dcfce7"/>
  <rect x="17" y="22" width="4" height="2" rx="0.5" fill="#dcfce7"/>
</svg>